<svg xmlns="http://www.w3.org/2000/svg" viewBox="0 0 1200 700" role="img" aria-label="ID Tools futuristic neon dashboard illustration">
  <defs>
    <linearGradient id="bg" x1="0" y1="0" x2="1" y2="1">
      <stop offset="0%" stop-color="#070f22"/>
      <stop offset="52%" stop-color="#102b56"/>
      <stop offset="100%" stop-color="#0f6b67"/>
    </linearGradient>
    <linearGradient id="card" x1="0" y1="0" x2="1" y2="1">
      <stop offset="0%" stop-color="#132949"/>
      <stop offset="100%" stop-color="#0f1e34"/>
    </linearGradient>
    <linearGradient id="line" x1="0" y1="0" x2="1" y2="0">
      <stop offset="0%" stop-color="#35d1ff"/>
      <stop offset="100%" stop-color="#46f0bb"/>
    </linearGradient>
    <filter id="glow" x="-30%" y="-30%" width="160%" height="160%">
      <feDropShadow dx="0" dy="0" stdDeviation="8" flood-color="#35d1ff" flood-opacity="0.38"/>
    </filter>
  </defs>

  <rect width="1200" height="700" fill="url(#bg)"/>

  <g opacity="0.18">
    <circle cx="130" cy="140" r="96" fill="#7ed6ff"/>
    <circle cx="1080" cy="100" r="78" fill="#7ed6ff"/>
    <circle cx="1060" cy="580" r="130" fill="#7ed6ff"/>
  </g>

  <g stroke="url(#line)" stroke-width="2" opacity="0.35">
    <path d="M0 120h1200"/>
    <path d="M0 300h1200"/>
    <path d="M0 520h1200"/>
    <path d="M170 0v700"/>
    <path d="M620 0v700"/>
    <path d="M980 0v700"/>
  </g>

  <g filter="url(#glow)">
    <rect x="120" y="90" width="960" height="520" rx="26" fill="url(#card)" stroke="#35d1ff" stroke-width="2"/>
  </g>

  <text x="170" y="165" fill="#9be9ff" font-family="Lato, Arial, sans-serif" font-size="44" font-weight="800">
    ID Tools Control Center
  </text>
  <text x="170" y="205" fill="#8fb9d7" font-family="Lato, Arial, sans-serif" font-size="24">
    Multi-country validation and generator dashboard
  </text>

  <g filter="url(#glow)">
    <rect x="160" y="250" width="280" height="230" rx="18" fill="#0d233f" stroke="#35d1ff" stroke-width="2"/>
    <text x="190" y="305" fill="#7ed6ff" font-family="Lato, Arial, sans-serif" font-size="30" font-weight="800">SG 🇸🇬</text>
    <text x="190" y="358" fill="#d7f5ff" font-family="Lato, Arial, sans-serif" font-size="30" font-weight="700">S1234567D</text>
    <rect x="190" y="390" width="160" height="38" rx="19" fill="#0c8f61"/>
    <text x="228" y="415" fill="#ffffff" font-family="Lato, Arial, sans-serif" font-size="20" font-weight="800">VALID</text>
  </g>

  <g filter="url(#glow)">
    <rect x="460" y="250" width="280" height="230" rx="18" fill="#112541" stroke="#46f0bb" stroke-width="2"/>
    <text x="490" y="305" fill="#9ef4d9" font-family="Lato, Arial, sans-serif" font-size="30" font-weight="800">MY 🇲🇾</text>
    <text x="490" y="358" fill="#e6fff6" font-family="Lato, Arial, sans-serif" font-size="30" font-weight="700">900101-14-5678</text>
    <rect x="490" y="390" width="160" height="38" rx="19" fill="#0c8f61"/>
    <text x="528" y="415" fill="#ffffff" font-family="Lato, Arial, sans-serif" font-size="20" font-weight="800">VALID</text>
  </g>

  <g filter="url(#glow)">
    <rect x="760" y="250" width="280" height="230" rx="18" fill="#12253e" stroke="#8bc1ff" stroke-width="2"/>
    <text x="790" y="305" fill="#b4d4ff" font-family="Lato, Arial, sans-serif" font-size="30" font-weight="800">HK 🇭🇰</text>
    <text x="790" y="358" fill="#e4f0ff" font-family="Lato, Arial, sans-serif" font-size="30" font-weight="700">AB123456(9)</text>
    <rect x="790" y="390" width="160" height="38" rx="19" fill="#0c8f61"/>
    <text x="828" y="415" fill="#ffffff" font-family="Lato, Arial, sans-serif" font-size="20" font-weight="800">VALID</text>
  </g>

  <g filter="url(#glow)">
    <circle cx="290" cy="545" r="22" fill="#35d1ff"/>
    <circle cx="345" cy="545" r="22" fill="#46f0bb"/>
    <circle cx="400" cy="545" r="22" fill="#8bc1ff"/>
  </g>

  <text x="450" y="555" fill="#96bdd8" font-family="Lato, Arial, sans-serif" font-size="24" font-weight="700">
    Secure Identity Validation • Singapore • Malaysia • Hong Kong
  </text>
</svg>
